<svg width="365" height="314" viewBox="0 0 365 314" fill="none" xmlns="http://www.w3.org/2000/svg">
<path d="M154.957 89.8822L14.0469 143.029L78.5659 314L219.476 260.853L154.957 89.8822Z" fill="url(#paint0_linear)"/>
<path d="M154.158 91.6452L15.8096 143.826L79.1199 311.594L217.468 259.413L154.158 91.6452Z" fill="white"/>
<path d="M32.4932 138.619L15.7627 144.846L78.5377 313.398L95.2682 307.17L32.4932 138.619Z" fill="#E0E0E0"/>
<path d="M45.2822 132.7L63.4073 180.723L66.1532 170.545L74.9366 176.374L56.8115 128.351L45.2822 132.7Z" fill="#3AD29F"/>
<path d="M151.885 235.872L89.7549 259.306L90.7212 261.867L152.852 238.433L151.885 235.872Z" fill="#DC0028"/>
<path d="M197.396 236.266L95.5566 274.677L96.523 277.238L198.362 238.827L197.396 236.266Z" fill="#DC0028"/>
<path d="M191.599 220.892L165.339 230.796L166.305 233.357L192.565 223.452L191.599 220.892Z" fill="#DC0028"/>
<path d="M118.915 257.083L92.6553 266.988L93.6216 269.549L119.881 259.644L118.915 257.083Z" fill="#DC0028"/>
<path d="M156.707 242.83L130.447 252.735L131.414 255.295L157.673 245.391L156.707 242.83Z" fill="#DC0028"/>
<path d="M194.498 228.581L168.238 238.485L169.205 241.046L195.464 231.142L194.498 228.581Z" fill="#DC0028"/>
<path d="M153.852 158.69L76.9922 187.679L87.6247 215.855L164.485 186.865L153.852 158.69Z" fill="#E0E0E0"/>
<path opacity="0.05" d="M51.0469 130.525L66.1532 170.545L74.9366 176.374L56.8115 128.351L51.0469 130.525Z" fill="black"/>
<g opacity="0.5">
<path opacity="0.5" d="M154.173 203.015L163.759 223.169C163.759 223.169 188.417 136.123 190.373 129.909C161.786 154.768 154.173 203.015 154.173 203.015Z" fill="url(#paint1_linear)"/>
<path opacity="0.5" d="M190.357 129.909L160.707 233.803L160.124 242.629L163.407 234.741L166.066 224.406L181.946 208.199C181.946 208.199 207.473 161.784 190.357 129.909Z" fill="url(#paint2_linear)"/>
</g>
<path d="M160.476 239.198L161.021 230.95L188.745 133.808L163.548 231.822L160.476 239.198Z" fill="#E0E0E0"/>
<path d="M158.97 235.167C159.232 235.302 159.531 235.35 159.822 235.303C160.178 235.175 160.339 234.692 160.711 234.634C160.815 234.301 160.86 233.953 160.844 233.604C160.829 233.519 160.841 233.431 160.877 233.352C160.959 233.22 161.158 233.22 161.29 233.108C161.34 233.048 161.372 232.975 161.383 232.897C161.393 232.82 161.381 232.741 161.348 232.67C161.286 232.529 161.241 232.38 161.216 232.228C161.223 232.048 161.279 231.874 161.377 231.723C161.542 231.405 161.791 231.049 162.13 231.025C162.469 231 162.791 231.26 163.052 231.082C163.114 231.041 163.159 230.979 163.221 230.938C163.371 230.9 163.528 230.9 163.678 230.936C163.828 230.973 163.966 231.046 164.082 231.149C164.226 231.322 164.16 231.562 164.168 231.802C164.168 232.215 164.466 232.554 164.52 232.955C164.539 233.154 164.522 233.354 164.47 233.546C164.381 233.901 164.242 234.24 164.057 234.555C163.908 234.82 163.726 235.064 163.598 235.341C163.379 235.82 163.325 236.395 162.953 236.767C162.651 237.065 162.154 237.218 162.047 237.627C162.028 237.885 162.047 238.144 162.105 238.396C162.1 238.627 162.038 238.853 161.924 239.053C161.81 239.254 161.647 239.423 161.451 239.545C161.057 239.786 160.625 239.957 160.174 240.054C159.996 239.467 159.347 239.119 159.148 238.545C158.979 238.086 159.111 237.573 159.082 237.081C159.044 236.712 158.958 236.349 158.826 236.002C158.782 235.795 158.664 235.612 158.495 235.485C158.433 235.452 158.362 235.44 158.293 235.452C158.224 235.464 158.161 235.499 158.114 235.552C158.14 235.466 158.183 235.387 158.242 235.321C158.301 235.254 158.373 235.2 158.454 235.164C158.536 235.127 158.624 235.109 158.713 235.109C158.802 235.11 158.89 235.129 158.97 235.167Z" fill="#DC0028"/>
<path d="M154.913 202.163L163.858 221.007C163.858 221.007 186.916 139.616 188.744 133.808C162.03 157.051 154.913 202.163 154.913 202.163Z" fill="#F3F3F3"/>
<path d="M166.017 222.169L180.904 206.996C180.904 206.996 204.773 163.612 188.761 133.82C187.988 136.652 166.017 222.169 166.017 222.169Z" fill="white"/>
<path opacity="0.1" d="M166.017 222.169L180.904 206.996C180.904 206.996 204.773 163.612 188.761 133.82C187.988 136.652 166.017 222.169 166.017 222.169Z" fill="black"/>
<path d="M272.732 248.215C289.057 248.215 302.291 234.984 302.291 218.663C302.291 202.342 289.057 189.112 272.732 189.112C256.407 189.112 243.173 202.342 243.173 218.663C243.173 234.984 256.407 248.215 272.732 248.215Z" fill="url(#paint3_linear)"/>
<path d="M272.732 246.9C288.331 246.9 300.977 234.258 300.977 218.663C300.977 203.068 288.331 190.426 272.732 190.426C257.134 190.426 244.488 203.068 244.488 218.663C244.488 234.258 257.134 246.9 272.732 246.9Z" fill="#DC0028"/>
<path opacity="0.05" d="M272.732 246.9C288.331 246.9 300.977 234.258 300.977 218.663C300.977 203.068 288.331 190.426 272.732 190.426C257.134 190.426 244.488 203.068 244.488 218.663C244.488 234.258 257.134 246.9 272.732 246.9Z" fill="black"/>
<path d="M272.732 234.749C281.619 234.749 288.823 227.547 288.823 218.663C288.823 209.779 281.619 202.577 272.732 202.577C263.846 202.577 256.642 209.779 256.642 218.663C256.642 227.547 263.846 234.749 272.732 234.749Z" fill="#DC0028"/>
<path opacity="0.2" d="M272.732 234.749C281.619 234.749 288.823 227.547 288.823 218.663C288.823 209.779 281.619 202.577 272.732 202.577C263.846 202.577 256.642 209.779 256.642 218.663C256.642 227.547 263.846 234.749 272.732 234.749Z" fill="#F5F5F5"/>
<path d="M272.733 230.156C279.082 230.156 284.229 225.011 284.229 218.663C284.229 212.316 279.082 207.17 272.733 207.17C266.383 207.17 261.236 212.316 261.236 218.663C261.236 225.011 266.383 230.156 272.733 230.156Z" fill="#DC0028"/>
<path d="M245.064 255.065C245.365 253.364 245.21 251.613 244.613 249.992C244.016 248.37 242.999 246.937 241.665 245.838C240.332 244.738 238.731 244.013 237.025 243.735C235.319 243.458 233.57 243.638 231.957 244.259C230.344 244.879 228.925 245.916 227.844 247.264C226.764 248.613 226.061 250.224 225.808 251.933C225.555 253.642 225.761 255.388 226.404 256.992C227.047 258.595 228.105 259.999 229.469 261.06C229.167 262.761 229.323 264.512 229.92 266.133C230.517 267.754 231.534 269.188 232.868 270.287C234.201 271.387 235.802 272.112 237.508 272.39C239.214 272.667 240.963 272.486 242.576 271.866C244.189 271.246 245.608 270.209 246.688 268.86C247.769 267.512 248.471 265.901 248.725 264.192C248.978 262.483 248.772 260.737 248.129 259.133C247.486 257.53 246.428 256.126 245.064 255.065Z" fill="url(#paint4_linear)"/>
<path d="M238.91 271.197C243.807 271.197 247.776 267.228 247.776 262.333C247.776 257.438 243.807 253.469 238.91 253.469C234.013 253.469 230.044 257.438 230.044 262.333C230.044 267.228 234.013 271.197 238.91 271.197Z" fill="#DC0028"/>
<path d="M251.386 288.929C254.652 288.929 257.3 286.282 257.3 283.017C257.3 279.752 254.652 277.105 251.386 277.105C248.12 277.105 245.473 279.752 245.473 283.017C245.473 286.282 248.12 288.929 251.386 288.929Z" fill="url(#paint5_linear)"/>
<path d="M251.386 288.271C254.289 288.271 256.642 285.919 256.642 283.017C256.642 280.115 254.289 277.762 251.386 277.762C248.483 277.762 246.13 280.115 246.13 283.017C246.13 285.919 248.483 288.271 251.386 288.271Z" fill="#DC0028"/>
<path d="M235.622 262.66C240.519 262.66 244.488 258.691 244.488 253.796C244.488 248.901 240.519 244.932 235.622 244.932C230.725 244.932 226.756 248.901 226.756 253.796C226.756 258.691 230.725 262.66 235.622 262.66Z" fill="#DC0028"/>
<path opacity="0.07" d="M255.977 241.393C255.977 241.393 275.69 248.215 295.229 235.738C295.725 235.08 279.961 256.752 255.977 241.393Z" fill="black"/>
<g opacity="0.5">
<path opacity="0.5" d="M134.811 54.6331H133.57V61.6613H134.811V54.6331Z" fill="#47E6B1"/>
<path opacity="0.5" d="M137.706 58.7673V57.527H130.676V58.7673H137.706Z" fill="#47E6B1"/>
</g>
<g opacity="0.5">
<path opacity="0.5" d="M277.48 0.0610352H276.239V7.08924H277.48V0.0610352Z" fill="#47E6B1"/>
<path opacity="0.5" d="M280.375 4.19529V2.95502L273.345 2.95502V4.19529H280.375Z" fill="#47E6B1"/>
</g>
<g opacity="0.5">
<path opacity="0.5" d="M73.1947 55.8733H71.9541V62.9015H73.1947V55.8733Z" fill="#47E6B1"/>
<path opacity="0.5" d="M76.0898 60.0075V58.7673H69.0598V60.0075H76.0898Z" fill="#47E6B1"/>
</g>
<g opacity="0.5">
<path opacity="0.5" d="M167.067 296.486H165.826V303.514H167.067V296.486Z" fill="#47E6B1"/>
<path opacity="0.5" d="M169.962 300.62V299.38H162.932V300.62H169.962Z" fill="#47E6B1"/>
</g>
<path opacity="0.5" d="M326.645 243.568C326.306 243.416 326.035 243.145 325.883 242.807C325.731 242.469 325.707 242.086 325.818 241.732C325.836 241.677 325.847 241.62 325.851 241.563C325.862 241.399 325.819 241.236 325.73 241.099C325.64 240.962 325.509 240.857 325.355 240.8C325.201 240.743 325.033 240.738 324.876 240.784C324.718 240.831 324.58 240.927 324.482 241.058C324.449 241.105 324.421 241.154 324.399 241.207C324.247 241.546 323.977 241.817 323.638 241.969C323.3 242.121 322.918 242.144 322.563 242.034C322.508 242.016 322.451 242.005 322.394 242.001C322.23 241.99 322.068 242.033 321.93 242.122C321.793 242.212 321.688 242.343 321.631 242.497C321.574 242.651 321.569 242.819 321.615 242.976C321.662 243.133 321.758 243.271 321.889 243.369C321.936 243.403 321.986 243.43 322.038 243.452C322.377 243.604 322.648 243.875 322.8 244.213C322.953 244.551 322.976 244.934 322.865 245.288C322.848 245.343 322.836 245.4 322.832 245.457C322.818 245.623 322.858 245.79 322.948 245.931C323.037 246.072 323.17 246.179 323.327 246.237C323.483 246.295 323.654 246.3 323.814 246.25C323.973 246.201 324.112 246.101 324.209 245.966C324.243 245.919 324.27 245.87 324.292 245.817C324.444 245.478 324.715 245.207 325.053 245.055C325.391 244.903 325.774 244.88 326.128 244.99C326.183 245.008 326.24 245.019 326.298 245.023C326.461 245.034 326.624 244.991 326.761 244.902C326.899 244.812 327.004 244.681 327.061 244.527C327.117 244.373 327.123 244.205 327.076 244.048C327.03 243.891 326.933 243.753 326.802 243.655C326.753 243.619 326.701 243.59 326.645 243.568Z" fill="#4D8AF0"/>
<path opacity="0.5" d="M295.216 285.324C294.878 285.172 294.607 284.901 294.454 284.563C294.302 284.224 294.279 283.842 294.389 283.488C294.407 283.433 294.418 283.376 294.422 283.319C294.433 283.155 294.39 282.992 294.301 282.855C294.211 282.717 294.08 282.612 293.926 282.556C293.772 282.499 293.604 282.494 293.447 282.54C293.29 282.587 293.152 282.683 293.053 282.814C293.02 282.86 292.992 282.91 292.971 282.963C292.819 283.301 292.548 283.572 292.21 283.725C291.871 283.877 291.489 283.9 291.135 283.79C291.08 283.772 291.023 283.761 290.965 283.757C290.801 283.746 290.639 283.789 290.501 283.878C290.364 283.968 290.259 284.099 290.202 284.253C290.146 284.407 290.14 284.575 290.187 284.732C290.233 284.889 290.329 285.027 290.461 285.125C290.507 285.158 290.557 285.186 290.61 285.208C290.948 285.36 291.219 285.631 291.371 285.969C291.524 286.307 291.547 286.689 291.437 287.043C291.419 287.098 291.408 287.155 291.403 287.213C291.389 287.379 291.429 287.546 291.519 287.686C291.608 287.827 291.741 287.935 291.898 287.993C292.054 288.051 292.226 288.055 292.385 288.006C292.545 287.957 292.684 287.857 292.781 287.721C292.814 287.675 292.842 287.625 292.863 287.573C293.015 287.234 293.286 286.963 293.624 286.811C293.963 286.659 294.345 286.635 294.699 286.746C294.754 286.763 294.811 286.775 294.869 286.779C295.033 286.789 295.195 286.747 295.333 286.657C295.47 286.568 295.575 286.437 295.632 286.283C295.689 286.129 295.694 285.961 295.647 285.804C295.601 285.647 295.505 285.509 295.373 285.41C295.325 285.375 295.272 285.346 295.216 285.324Z" fill="#4D8AF0"/>
<path opacity="0.5" d="M149.24 17.8383C148.901 17.6863 148.63 17.4156 148.478 17.0774C148.325 16.7392 148.302 16.3569 148.413 16.0027C148.43 15.9477 148.441 15.8908 148.446 15.8332C148.456 15.6696 148.414 15.507 148.324 15.3695C148.235 15.2321 148.103 15.1272 147.95 15.0705C147.796 15.0138 147.628 15.0083 147.47 15.0549C147.313 15.1014 147.175 15.1975 147.077 15.3288C147.044 15.3751 147.016 15.425 146.994 15.4777C146.842 15.8161 146.571 16.087 146.233 16.2394C145.895 16.3918 145.512 16.4149 145.158 16.3045C145.103 16.2868 145.046 16.2757 144.989 16.2714C144.825 16.2609 144.662 16.3035 144.525 16.3929C144.387 16.4823 144.282 16.6137 144.226 16.7675C144.169 16.9213 144.163 17.0894 144.21 17.2466C144.257 17.4038 144.353 17.5417 144.484 17.6399C144.53 17.6731 144.58 17.7009 144.633 17.7226C144.971 17.8746 145.242 18.1453 145.395 18.4835C145.547 18.8217 145.57 19.204 145.46 19.5582C145.442 19.6132 145.431 19.6701 145.427 19.7277C145.412 19.8939 145.453 20.0602 145.542 20.2011C145.632 20.342 145.765 20.4496 145.921 20.5074C146.078 20.5652 146.249 20.57 146.409 20.521C146.568 20.472 146.707 20.3719 146.804 20.2362C146.837 20.19 146.865 20.14 146.887 20.0874C147.039 19.749 147.309 19.478 147.648 19.3256C147.986 19.1733 148.369 19.1501 148.723 19.2605C148.778 19.2782 148.835 19.2893 148.892 19.2936C149.056 19.3041 149.219 19.2615 149.356 19.1722C149.494 19.0828 149.599 18.9514 149.655 18.7975C149.712 18.6437 149.717 18.4757 149.671 18.3185C149.624 18.1613 149.528 18.0233 149.397 17.9251C149.348 17.8899 149.295 17.8607 149.24 17.8383Z" fill="#4D8AF0"/>
<path opacity="0.5" d="M40.0668 265.479C39.7284 265.327 39.4573 265.057 39.3049 264.718C39.1525 264.38 39.1294 263.998 39.2398 263.644C39.2575 263.589 39.2686 263.532 39.2729 263.474C39.2834 263.311 39.2408 263.148 39.1514 263.01C39.062 262.873 38.9306 262.768 38.7767 262.711C38.6228 262.655 38.4547 262.649 38.2975 262.696C38.1402 262.742 38.0023 262.838 37.9041 262.97C37.8708 263.016 37.843 263.066 37.8214 263.119C37.6693 263.457 37.3986 263.728 37.0603 263.88C36.7219 264.033 36.3395 264.056 35.9853 263.945C35.9303 263.928 35.8734 263.917 35.8157 263.912C35.6521 263.902 35.4894 263.944 35.3519 264.034C35.2144 264.123 35.1095 264.255 35.0528 264.408C34.9961 264.562 34.9906 264.73 35.0372 264.888C35.0837 265.045 35.1799 265.183 35.3112 265.281C35.3575 265.314 35.4074 265.342 35.4601 265.364C35.7986 265.516 36.0696 265.786 36.222 266.124C36.3744 266.463 36.3976 266.845 36.2872 267.199C36.2695 267.254 36.2584 267.311 36.2541 267.369C36.2396 267.535 36.2801 267.701 36.3694 267.842C36.4587 267.983 36.5919 268.091 36.7484 268.148C36.905 268.206 37.0762 268.211 37.2357 268.162C37.3952 268.113 37.5341 268.013 37.6311 267.877C37.6644 267.831 37.6922 267.781 37.7138 267.728C37.8659 267.39 38.1366 267.119 38.475 266.967C38.8133 266.814 39.1957 266.791 39.5499 266.901C39.6049 266.919 39.6619 266.93 39.7195 266.935C39.8831 266.945 40.0458 266.903 40.1833 266.813C40.3208 266.724 40.4257 266.592 40.4824 266.438C40.5391 266.285 40.5446 266.117 40.498 265.959C40.4515 265.802 40.3553 265.664 40.224 265.566C40.1754 265.531 40.1226 265.502 40.0668 265.479Z" fill="#4D8AF0"/>
<path opacity="0.5" d="M203.871 25.6933C205.241 25.6933 206.352 24.5827 206.352 23.2128C206.352 21.8428 205.241 20.7322 203.871 20.7322C202.501 20.7322 201.39 21.8428 201.39 23.2128C201.39 24.5827 202.501 25.6933 203.871 25.6933Z" fill="#F55F44"/>
<path opacity="0.5" d="M2.48119 32.7216C3.85152 32.7216 4.96238 31.611 4.96238 30.241C4.96238 28.8711 3.85152 27.7605 2.48119 27.7605C1.11087 27.7605 0 28.8711 0 30.241C0 31.611 1.11087 32.7216 2.48119 32.7216Z" fill="#4D8AF0"/>
<path opacity="0.5" d="M348.607 172.459C349.977 172.459 351.088 171.348 351.088 169.978C351.088 168.608 349.977 167.498 348.607 167.498C347.237 167.498 346.126 168.608 346.126 169.978C346.126 171.348 347.237 172.459 348.607 172.459Z" fill="#47E6B1"/>
<path opacity="0.5" d="M24.3982 126.982C25.7685 126.982 26.8794 125.872 26.8794 124.502C26.8794 123.132 25.7685 122.021 24.3982 122.021C23.0279 122.021 21.917 123.132 21.917 124.502C21.917 125.872 23.0279 126.982 24.3982 126.982Z" fill="#F55F44"/>
<g opacity="0.5">
<path opacity="0.5" d="M277.378 120.052L297.484 4.1779C297.542 3.84376 297.665 3.52434 297.846 3.23782C298.028 2.95131 298.264 2.70334 298.541 2.50806C298.819 2.31277 299.132 2.17401 299.463 2.0997C299.794 2.02538 300.136 2.01692 300.47 2.07488L362.451 12.8238C363.127 12.9411 363.729 13.3221 364.124 13.8829C364.519 14.4437 364.675 15.1385 364.558 15.8143L344.452 131.689C344.335 132.364 343.954 132.964 343.394 133.359C342.834 133.753 342.14 133.909 341.465 133.792L279.489 123.044C279.154 122.986 278.833 122.863 278.545 122.681C278.258 122.5 278.009 122.263 277.813 121.986C277.617 121.708 277.477 121.394 277.403 121.062C277.328 120.731 277.32 120.387 277.378 120.052Z" fill="url(#paint6_linear)"/>
</g>
<path d="M358.843 10.3582L304.643 0.958647C301.59 0.4292 298.686 2.47422 298.156 5.52632L279.642 112.228C279.112 115.28 281.158 118.184 284.211 118.713L338.411 128.113C341.463 128.642 344.368 126.597 344.897 123.545L363.411 16.8431C363.941 13.791 361.896 10.8876 358.843 10.3582Z" fill="white"/>
<path d="M349.335 13.2079C348.924 14.4296 348.09 15.4639 346.982 16.1236C345.875 16.7834 344.568 17.025 343.298 16.8047L320.649 12.8028C319.38 12.5751 318.234 11.9009 317.42 10.9022C316.605 9.90348 316.175 8.64626 316.207 7.35798L304.215 5.23712C303.886 5.17955 303.55 5.18742 303.225 5.26026C302.899 5.33309 302.592 5.46947 302.319 5.66155C302.047 5.85363 301.815 6.09763 301.637 6.37953C301.459 6.66144 301.339 6.97569 301.283 7.30424L282.302 114.716C282.244 115.044 282.252 115.381 282.325 115.706C282.398 116.031 282.534 116.339 282.726 116.611C282.918 116.883 283.162 117.115 283.444 117.293C283.726 117.471 284.041 117.591 284.369 117.647L341.672 127.768C342.001 127.825 342.337 127.817 342.663 127.745C342.988 127.672 343.296 127.535 343.568 127.343C343.841 127.151 344.072 126.907 344.25 126.625C344.428 126.343 344.548 126.029 344.604 125.701L363.585 18.2889C363.643 17.9606 363.635 17.6242 363.562 17.299C363.489 16.9738 363.353 16.6661 363.161 16.3938C362.969 16.1214 362.725 15.8897 362.443 15.7119C362.161 15.5341 361.846 15.4137 361.518 15.3577L349.335 13.2079Z" fill="#E0E0E0"/>
<path d="M338.87 12.7577L325.142 10.5102C324.889 10.4689 324.651 10.6399 324.61 10.8923C324.568 11.1447 324.74 11.3828 324.992 11.4241L338.72 13.6716C338.973 13.7129 339.211 13.5419 339.252 13.2895C339.294 13.0371 339.122 12.799 338.87 12.7577Z" fill="#DBDBDB"/>
<path d="M342.96 13.7825C343.009 13.4783 342.803 13.1913 342.499 13.1415C342.195 13.0917 341.908 13.2979 341.858 13.6021C341.808 13.9063 342.014 14.1933 342.319 14.2431C342.623 14.2929 342.91 14.0867 342.96 13.7825Z" fill="#DBDBDB"/>
<path d="M322.629 28.7516L304.647 25.9687L302.243 41.4939L320.225 44.2768L322.629 28.7516Z" fill="white"/>
<path opacity="0.3" d="M319.153 51.2227L301.172 48.4398L298.768 63.965L316.749 66.7479L319.153 51.2227Z" fill="#DC0028"/>
<path d="M315.673 73.6932L297.691 70.9103L295.287 86.4355L313.269 89.2184L315.673 73.6932Z" fill="white"/>
<path opacity="0.3" d="M312.192 96.1636L294.211 93.3807L291.807 108.906L309.788 111.689L312.192 96.1636Z" fill="#3AD29F"/>
<path d="M350.261 36.7902L326.559 33.1218L326.306 34.756L350.008 38.4244L350.261 36.7902Z" fill="white"/>
<path d="M349.498 41.6929L325.796 38.0245L325.543 39.6588L349.245 43.3272L349.498 41.6929Z" fill="white"/>
<path d="M346.842 58.8532L323.14 55.1848L322.887 56.819L346.589 60.4874L346.842 58.8532Z" fill="white"/>
<path d="M347.068 62.7277L323.323 59.1309L323.075 60.7681L346.82 64.3649L347.068 62.7277Z" fill="white"/>
<path d="M343.427 80.9169L319.725 77.2485L319.472 78.8827L343.174 82.5511L343.427 80.9169Z" fill="white"/>
<path d="M342.665 85.8196L318.963 82.1512L318.71 83.7855L342.412 87.4539L342.665 85.8196Z" fill="white"/>
<path d="M340.009 102.98L316.307 99.3115L316.054 100.946L339.756 104.614L340.009 102.98Z" fill="white"/>
<path d="M339.251 107.879L315.549 104.211L315.296 105.845L338.998 109.513L339.251 107.879Z" fill="white"/>
<g opacity="0.5">
<path opacity="0.5" d="M233.637 74.6684L232.812 158.986L258.599 159.238L259.423 74.9203L233.637 74.6684Z" fill="url(#paint7_linear)"/>
</g>
<path d="M259.016 75.4737L234.499 75.2341L233.686 158.423L258.203 158.663L259.016 75.4737Z" fill="#E0E0E0"/>
<path d="M255.434 76.7771L238.104 76.6078L237.934 93.9336L255.264 94.1029L255.434 76.7771Z" fill="#4D8AF0"/>
<path opacity="0.5" d="M255.23 97.6934L237.899 97.524L237.73 114.85L255.06 115.019L255.23 97.6934Z" fill="#4D8AF0"/>
<path opacity="0.3" d="M255.021 118.614L237.69 118.444L237.521 135.77L254.851 135.939L255.021 118.614Z" fill="#4D8AF0"/>
<g opacity="0.5">
<path opacity="0.5" d="M232.055 79.5396L207.499 87.4122L233.159 167.407L257.715 159.535L232.055 79.5396Z" fill="url(#paint8_linear)"/>
</g>
<path d="M231.822 80.2025L208.475 87.6875L233.789 166.608L257.137 159.123L231.822 80.2025Z" fill="#F5F5F5"/>
<path d="M228.828 82.5702L212.324 87.8611L217.617 104.36L234.12 99.0693L228.828 82.5702Z" fill="#FF5252"/>
<path opacity="0.5" d="M235.219 102.492L218.716 107.783L224.008 124.282L240.511 118.991L235.219 102.492Z" fill="#FF5252"/>
<path opacity="0.3" d="M241.606 122.411L225.103 127.702L230.395 144.201L246.898 138.91L241.606 122.411Z" fill="#FF5252"/>
<g opacity="0.5">
<path opacity="0.5" d="M216.809 85.2623L194.36 97.9497L235.713 171.081L258.162 158.393L216.809 85.2623Z" fill="url(#paint9_linear)"/>
</g>
<path d="M216.717 85.958L195.373 98.0208L236.17 170.169L257.514 158.107L216.717 85.958Z" fill="#F5F5F5"/>
<path d="M214.255 88.8905L199.168 97.4173L207.697 112.501L222.784 103.974L214.255 88.8905Z" fill="#69F0AE"/>
<path opacity="0.5" d="M224.549 107.103L209.462 115.63L217.991 130.713L233.078 122.186L224.549 107.103Z" fill="#69F0AE"/>
<path opacity="0.3" d="M234.848 125.316L219.761 133.842L228.29 148.926L243.377 140.399L234.848 125.316Z" fill="#69F0AE"/>
<g opacity="0.5">
<path opacity="0.5" d="M207.799 91.6201L187.117 107.02L237.312 174.393L257.993 158.993L207.799 91.6201Z" fill="url(#paint10_linear)"/>
</g>
<path d="M207.793 92.3292L188.13 106.971L237.65 173.439L257.314 158.797L207.793 92.3292Z" fill="white"/>
<path d="M205.529 94.5797L191.664 104.976L202.063 118.837L215.928 108.441L205.529 94.5797Z" fill="#DC0028"/>
<path opacity="0.5" d="M218.215 112.325L204.315 122.675L214.668 136.57L228.567 126.22L218.215 112.325Z" fill="#DC0028"/>
<path opacity="0.3" d="M230.562 128.004L216.697 138.4L227.096 152.261L240.961 141.865L230.562 128.004Z" fill="#DC0028"/>
<defs>
<linearGradient id="paint0_linear" x1="149.023" y1="287.426" x2="84.5331" y2="116.444" gradientUnits="userSpaceOnUse">
<stop stop-color="#808080" stop-opacity="0.25"/>
<stop offset="0.54" stop-color="#808080" stop-opacity="0.12"/>
<stop offset="1" stop-color="#808080" stop-opacity="0.1"/>
</linearGradient>
<linearGradient id="paint1_linear" x1="32701.6" y1="41327.6" x2="37588.4" y2="39483.4" gradientUnits="userSpaceOnUse">
<stop stop-color="#808080" stop-opacity="0.25"/>
<stop offset="0.54" stop-color="#808080" stop-opacity="0.12"/>
<stop offset="1" stop-color="#808080" stop-opacity="0.1"/>
</linearGradient>
<linearGradient id="paint2_linear" x1="36495.2" y1="53523" x2="42094.4" y2="51410" gradientUnits="userSpaceOnUse">
<stop stop-color="#808080" stop-opacity="0.25"/>
<stop offset="0.54" stop-color="#808080" stop-opacity="0.12"/>
<stop offset="1" stop-color="#808080" stop-opacity="0.1"/>
</linearGradient>
<linearGradient id="paint3_linear" x1="39233" y1="35665.1" x2="39233" y2="27216.4" gradientUnits="userSpaceOnUse">
<stop stop-color="#808080" stop-opacity="0.25"/>
<stop offset="0.54" stop-color="#808080" stop-opacity="0.12"/>
<stop offset="1" stop-color="#808080" stop-opacity="0.1"/>
</linearGradient>
<linearGradient id="paint4_linear" x1="16547.3" y1="21404.1" x2="16547.3" y2="19383.7" gradientUnits="userSpaceOnUse">
<stop stop-color="#808080" stop-opacity="0.25"/>
<stop offset="0.54" stop-color="#808080" stop-opacity="0.12"/>
<stop offset="1" stop-color="#808080" stop-opacity="0.1"/>
</linearGradient>
<linearGradient id="paint5_linear" x1="7435.13" y1="8538.61" x2="7435.13" y2="8200.57" gradientUnits="userSpaceOnUse">
<stop stop-color="#808080" stop-opacity="0.25"/>
<stop offset="0.54" stop-color="#808080" stop-opacity="0.12"/>
<stop offset="1" stop-color="#808080" stop-opacity="0.1"/>
</linearGradient>
<linearGradient id="paint6_linear" x1="96438.1" y1="43070.5" x2="105891" y2="20850.8" gradientUnits="userSpaceOnUse">
<stop stop-color="#808080" stop-opacity="0.25"/>
<stop offset="0.54" stop-color="#808080" stop-opacity="0.12"/>
<stop offset="1" stop-color="#808080" stop-opacity="0.1"/>
</linearGradient>
<linearGradient id="paint7_linear" x1="39074.1" y1="15588.4" x2="39125.5" y2="10330.3" gradientUnits="userSpaceOnUse">
<stop stop-color="#808080" stop-opacity="0.25"/>
<stop offset="0.54" stop-color="#808080" stop-opacity="0.12"/>
<stop offset="1" stop-color="#808080" stop-opacity="0.1"/>
</linearGradient>
<linearGradient id="paint8_linear" x1="28914.8" y1="48306.5" x2="23703.3" y2="32050.7" gradientUnits="userSpaceOnUse">
<stop stop-color="#808080" stop-opacity="0.25"/>
<stop offset="0.54" stop-color="#808080" stop-opacity="0.12"/>
<stop offset="1" stop-color="#808080" stop-opacity="0.1"/>
</linearGradient>
<linearGradient id="paint9_linear" x1="37777.5" y1="41241" x2="29377.5" y2="26378.2" gradientUnits="userSpaceOnUse">
<stop stop-color="#808080" stop-opacity="0.25"/>
<stop offset="0.54" stop-color="#808080" stop-opacity="0.12"/>
<stop offset="1" stop-color="#808080" stop-opacity="0.1"/>
</linearGradient>
<linearGradient id="paint10_linear" x1="43151.4" y1="36795.6" x2="32955.2" y2="23102.9" gradientUnits="userSpaceOnUse">
<stop stop-color="#808080" stop-opacity="0.25"/>
<stop offset="0.54" stop-color="#808080" stop-opacity="0.12"/>
<stop offset="1" stop-color="#808080" stop-opacity="0.1"/>
</linearGradient>
</defs>
</svg>
