<svg width="341" height="474" viewBox="0 0 341 474" fill="none" xmlns="http://www.w3.org/2000/svg">
<path d="M318.002 69.6593L285.37 59.7657L283.361 104.528L317.701 114.911L318.002 69.6593Z" fill="#F5F5F5"/>
<path d="M88.2931 0V45.5468L283.361 104.528L285.369 59.7658L88.2931 0Z" fill="#F5F5F5"/>
<path opacity="0.1" d="M318.002 69.6593L285.37 59.7657L283.361 104.528L317.701 114.911L318.002 69.6593Z" fill="black"/>
<path d="M318.002 155.396L285.37 145.502L283.361 190.265L317.701 200.647L318.002 155.396Z" fill="#3AD29F"/>
<path d="M88.2931 85.7365V131.283L283.361 190.265L285.369 145.502L88.2931 85.7365Z" fill="#3AD29F"/>
<path opacity="0.1" d="M318.002 155.396L285.37 145.502L283.361 190.265L317.701 200.647L318.002 155.396Z" fill="black"/>
<path d="M293.663 171.177L299.003 179.213L309.691 165.814" stroke="white" stroke-width="7" stroke-miterlimit="10" stroke-linecap="round"/>
<g opacity="0.4">
<path opacity="0.4" d="M293.958 77.3993L304.645 96.1549" stroke="white" stroke-width="7" stroke-miterlimit="10" stroke-linecap="round"/>
<path opacity="0.4" d="M307.315 80.0778L293.958 93.4764" stroke="white" stroke-width="7" stroke-miterlimit="10" stroke-linecap="round"/>
</g>
<path d="M318.002 235.775L285.37 225.882L283.361 270.644L317.701 281.027L318.002 235.775Z" fill="#F5F5F5"/>
<path d="M88.2931 166.116V211.663L283.361 270.644L285.369 225.882L88.2931 166.116Z" fill="#F5F5F5"/>
<path opacity="0.1" d="M318.002 235.775L285.37 225.882L283.361 270.644L317.701 281.027L318.002 235.775Z" fill="black"/>
<g opacity="0.4">
<path opacity="0.4" d="M293.958 243.515L304.645 262.271" stroke="white" stroke-width="7" stroke-miterlimit="10" stroke-linecap="round"/>
<path opacity="0.4" d="M307.315 246.194L293.958 259.592" stroke="white" stroke-width="7" stroke-miterlimit="10" stroke-linecap="round"/>
</g>
<path opacity="0.3" d="M223.178 160.463C226.864 160.463 229.853 154.465 229.853 147.065C229.853 139.665 226.864 133.666 223.178 133.666C219.491 133.666 216.502 139.665 216.502 147.065C216.502 154.465 219.491 160.463 223.178 160.463Z" fill="black"/>
<path opacity="0.1" d="M223.178 259.592C254.157 259.592 279.271 209.212 279.271 147.065C279.271 84.9174 254.157 34.5371 223.178 34.5371C192.198 34.5371 167.084 84.9174 167.084 147.065C167.084 209.212 192.198 259.592 223.178 259.592Z" fill="#DC0028"/>
<path opacity="0.1" d="M223.178 208.689C240.14 208.689 253.892 181.099 253.892 147.065C253.892 113.031 240.14 85.4409 223.178 85.4409C206.215 85.4409 192.464 113.031 192.464 147.065C192.464 181.099 206.215 208.689 223.178 208.689Z" fill="white"/>
<g opacity="0.5">
<path opacity="0.5" d="M229.402 148.881C226.66 140.628 210.356 151.782 210.356 151.782L209.014 153.592L180.032 192.889L109.024 153.073V135.271C112.368 134.9 115.6 133.846 118.523 132.174C121.446 130.503 123.996 128.249 126.018 125.552C128.04 122.855 129.491 119.771 130.28 116.491C131.069 113.21 131.181 109.802 130.608 106.477C134.181 105.095 137.092 102.115 139.774 99.2377C142.246 96.6014 144.892 93.4041 144.639 89.893C144.68 89.3322 144.647 88.7685 144.543 88.216C143.978 85.2539 141.308 83.0942 138.481 82.0626C135.654 81.031 132.599 80.8561 129.646 80.2528C122.61 78.8713 116.253 75.1854 109.391 73.0981C106.274 72.1575 103.066 71.5509 99.8222 71.2882C97.4948 71.0952 95.0711 71.0952 92.9421 72.0544C90.6086 73.1101 88.9187 75.1733 87.0423 76.9288C84.7741 79.0471 82.1574 80.7554 79.3081 81.9782C75.0561 83.788 70.2869 84.53 66.456 87.0879C65.3922 87.7306 64.5022 88.6255 63.8639 89.694C63.3041 90.8433 63.0651 92.1233 63.1723 93.398C63.1551 94.5215 63.2397 95.6441 63.4248 96.7522C64.0984 101.482 64.8742 106.326 67.2618 110.458C69.2104 113.837 72.1273 116.527 74.99 119.17L81.4311 125.094C82.7361 126.3 84.1795 127.784 85.8635 128.382C85.7552 127.597 86.2003 126.771 86.8618 125.968L84.7749 140.604C80.8857 139.393 76.8425 138.753 72.7708 138.703C67.2859 138.637 61.7349 139.633 59.3352 143.379C59.1949 143.606 59.0722 143.844 58.9684 144.091C51.4086 153.091 34.082 182.241 44.2699 253.041C43.3978 261.704 42.8746 267.188 42.8746 267.188L42.9348 268.056L42.8746 268.714L42.9949 268.81L48.6662 346.976L37.6965 424.013H40.1322V432.574H37.3898V446.328C37.3898 446.328 75.4831 443.885 81.2928 435.325C86.1041 428.224 62.1559 431.011 53.8624 432.169V426.903H54.0128V424.001H56.9055L67.8753 371.728C79.1517 352.176 73.3722 303.233 73.3722 303.233L87.0843 311.486L98.03 368.989L89.8148 454.279H92.2505V460.24H89.051V473.994C89.051 473.994 127.144 471.551 132.954 462.99C137.765 455.89 113.829 458.677 105.536 459.835L104.615 454.279H106.293L117.275 377.242C122.688 356.369 115.309 295.125 114.334 287.282L127.914 197.178L127.722 196.919L127.914 195.646L182.769 214.914C182.769 214.914 188.254 220.416 193.895 204.056C199.163 188.769 213.615 168.276 215.486 165.664L215.684 165.386C215.684 165.386 232.145 157.133 229.402 148.881Z" fill="url(#paint0_linear)"/>
</g>
<path d="M42.5859 417.371V430.764H55.9432V412.014L42.5859 417.371Z" fill="#FDA57D"/>
<path d="M93.339 444.162V460.239L106.69 457.561L104.02 441.484L93.339 444.162Z" fill="#FDA57D"/>
<path d="M64.1044 144.229C64.1044 144.229 32.2296 168.191 47.9325 261.969L64.1044 144.229Z" fill="#F55F44"/>
<path opacity="0.05" d="M64.1044 144.229C64.1044 144.229 32.2296 168.191 47.9325 261.969L64.1044 144.229Z" fill="black"/>
<path opacity="0.05" d="M105.506 452.349L104.17 444.313L93.4833 446.992V452.349H105.506Z" fill="black"/>
<path opacity="0.05" d="M42.7362 422.879H56.0935V414.838L42.7362 420.201V422.879Z" fill="black"/>
<path d="M88.2931 128.309L85.6228 147.065L109.661 160.457V133.666L88.2931 128.309Z" fill="#FDA57D"/>
<path d="M40.2163 420.05L50.9034 345.027L45.2622 267.326L114.707 286.082C114.707 286.082 123.289 352.767 117.672 374.497L106.991 449.519H90.9634L98.9742 366.461L88.2931 310.472L74.9358 302.455C74.9358 302.455 80.577 350.113 69.5952 369.14L58.9382 420.05H40.2163Z" fill="#DC0028"/>
<path d="M226.888 152.12C224.218 144.085 208.341 154.95 208.341 154.95L207.036 156.723L213.338 168.469L213.537 168.197C213.537 168.197 229.559 160.156 226.888 152.12Z" fill="#FDA57D"/>
<path opacity="0.05" d="M87.9924 145.569C87.9924 145.569 66.6243 139.91 61.2838 148.247C55.9432 156.584 45.2562 268.847 45.2562 268.847C45.2562 268.847 77.0107 295.638 114.701 287.602L128.058 199.187L87.9924 145.569Z" fill="black"/>
<path d="M178.811 194.988L94.3854 147.668C88.2668 144.214 81.3848 142.347 74.3645 142.239C69.0239 142.172 63.6172 143.144 61.2838 146.787C55.9432 155.124 45.2562 267.356 45.2562 267.356C45.2562 267.356 77.0107 294.148 114.701 286.112L128.058 197.661L181.482 216.416C181.482 216.416 186.822 221.773 192.307 205.847C197.437 190.959 211.51 171.008 213.357 168.445L207.054 156.699L178.811 194.988Z" fill="#F55F44"/>
<path opacity="0.05" d="M87.9323 132.466C90.1784 135.343 93.0484 137.67 96.3246 139.269C99.6008 140.869 103.197 141.698 106.841 141.696C107.733 141.695 108.624 141.644 109.511 141.545V136.339L88.1428 130.982L87.9323 132.466Z" fill="black"/>
<path d="M106.991 139.023C120.267 139.023 131.029 128.228 131.029 114.911C131.029 101.594 120.267 90.7979 106.991 90.7979C93.715 90.7979 82.9526 101.594 82.9526 114.911C82.9526 128.228 93.715 139.023 106.991 139.023Z" fill="#FDA57D"/>
<path d="M39.9156 428.381V441.779C39.9156 441.779 77.0106 439.397 82.6518 431.059C88.2931 422.722 53.2729 428.381 53.2729 428.381H39.9156Z" fill="#333333"/>
<path d="M90.2116 455.323V468.721C90.2116 468.721 127.307 466.339 132.948 458.001C138.589 449.664 103.569 455.323 103.569 455.323H90.2116Z" fill="#333333"/>
<path opacity="0.05" d="M91.7452 125.962L101.139 112.479C102.529 110.483 103.954 108.45 105.902 106.99C107.851 105.53 110.437 104.715 112.746 105.463C114.142 105.916 115.302 106.881 116.487 107.744C119.993 110.302 124.306 112.202 128.594 111.43C133.062 110.621 136.496 107.122 139.606 103.804C142.186 101.053 144.958 97.6752 144.248 93.9651C143.695 91.0815 141.097 88.9821 138.343 87.9746C135.588 86.9672 132.617 86.8043 129.742 86.2372C122.892 84.8919 116.698 81.3025 110.016 79.2695C106.981 78.3372 103.857 77.7305 100.694 77.4597C98.4269 77.2726 96.0633 77.2727 93.9945 78.2077C91.7212 79.2333 90.0733 81.2241 88.251 82.9554C86.0423 85.0157 83.4948 86.6771 80.7213 87.866C76.5836 89.6396 71.9588 90.3515 68.206 92.843C67.1715 93.47 66.3062 94.3421 65.6861 95.3828C64.7238 97.1926 64.9704 99.3523 65.2591 101.367C65.9146 105.97 66.6664 110.688 68.9938 114.711C70.8943 117.999 73.7269 120.624 76.5235 123.193L82.7962 128.967C84.0652 130.137 85.4725 131.585 87.1144 132.17C86.8197 130.095 90.5604 127.682 91.7452 125.962Z" fill="black"/>
<path d="M91.7452 125.07L101.139 111.587C102.529 109.59 103.954 107.557 105.902 106.097C107.851 104.637 110.437 103.822 112.746 104.571C114.142 105.023 115.302 105.988 116.487 106.851C119.993 109.409 124.306 111.309 128.594 110.537C133.062 109.728 136.496 106.23 139.606 102.912C142.186 100.161 144.958 96.7824 144.248 93.0723C143.695 90.1886 141.097 88.0893 138.343 87.0818C135.588 86.0743 132.617 85.9115 129.742 85.3444C122.892 83.9991 116.698 80.4097 110.016 78.3766C106.981 77.4444 103.857 76.8377 100.694 76.5668C98.4269 76.3798 96.0633 76.3798 93.9945 77.3149C91.7212 78.3404 90.0733 80.3312 88.251 82.0626C86.0428 84.1251 83.4953 85.7885 80.7213 86.9792C76.5836 88.7529 71.9588 89.4647 68.206 91.9562C67.1715 92.5832 66.3062 93.4553 65.6861 94.496C64.7238 96.3058 64.9704 98.4655 65.2591 100.48C65.9146 105.083 66.6664 109.801 68.9938 113.825C70.8943 117.112 73.7269 119.737 76.5235 122.307L82.7962 128.08C84.0652 129.25 85.4725 130.698 87.1144 131.283C86.8197 129.208 90.5604 126.765 91.7452 125.07Z" fill="#333333"/>
<g opacity="0.5">
<path opacity="0.5" d="M2.96498 66.5344H2.07489V71.5958H2.96498V66.5344Z" fill="#47E6B1"/>
<path opacity="0.5" d="M5.0459 69.5085V68.6157H6.10352e-05V69.5085H5.0459Z" fill="#47E6B1"/>
</g>
<g opacity="0.5">
<path opacity="0.5" d="M318.706 313.271H317.816V318.333H318.706V313.271Z" fill="#47E6B1"/>
<path opacity="0.5" d="M320.787 316.245V315.353H315.741V316.245H320.787Z" fill="#47E6B1"/>
</g>
<g opacity="0.5">
<path opacity="0.5" d="M296.778 205.859H295.888V210.921H296.778V205.859Z" fill="#47E6B1"/>
<path opacity="0.5" d="M298.859 208.833V207.941H293.813V208.833H298.859Z" fill="#47E6B1"/>
</g>
<g opacity="0.5">
<path opacity="0.5" d="M258.793 308.861H257.903V313.923H258.793V308.861Z" fill="#47E6B1"/>
<path opacity="0.5" d="M260.874 311.835V310.943H255.828V311.835H260.874Z" fill="#47E6B1"/>
</g>
<g opacity="0.5">
<path opacity="0.5" d="M232.084 373.459H231.194V378.521H232.084V373.459Z" fill="#47E6B1"/>
<path opacity="0.5" d="M234.159 376.439V375.547H229.113V376.439H234.159Z" fill="#47E6B1"/>
</g>
<g opacity="0.5">
<path opacity="0.5" d="M40.9561 144.827H40.066V149.888H40.9561V144.827Z" fill="#47E6B1"/>
<path opacity="0.5" d="M43.031 147.807V146.914H37.9852V147.807H43.031Z" fill="#47E6B1"/>
</g>
<path opacity="0.5" d="M53.9225 66.0278C53.6782 65.9198 53.482 65.7256 53.3711 65.482C53.2602 65.2385 53.2424 64.9625 53.3211 64.7066C53.3257 64.6665 53.3257 64.6261 53.3211 64.586C53.3269 64.4692 53.2953 64.3536 53.231 64.256C53.1666 64.1585 53.073 64.0841 52.9635 64.0437C52.8541 64.0033 52.7347 63.999 52.6227 64.0314C52.5107 64.0639 52.4119 64.1313 52.3408 64.224C52.3165 64.2577 52.2964 64.2941 52.2807 64.3326C52.1731 64.5777 51.9794 64.7745 51.7366 64.8857C51.4938 64.997 51.2187 65.0148 50.9636 64.9359H50.8433C50.7269 64.9301 50.6116 64.9618 50.5144 65.0263C50.4171 65.0908 50.3429 65.1848 50.3027 65.2945C50.2624 65.4043 50.2581 65.5241 50.2905 65.6364C50.3228 65.7488 50.3901 65.8478 50.4824 65.9192C50.516 65.9435 50.5524 65.9638 50.5907 65.9795C50.835 66.0874 51.0312 66.2817 51.1421 66.5252C51.253 66.7688 51.2708 67.0448 51.1921 67.3007C51.1875 67.3408 51.1875 67.3812 51.1921 67.4213C51.1864 67.5381 51.2179 67.6537 51.2823 67.7513C51.3466 67.8488 51.4403 67.9232 51.5497 67.9636C51.6591 68.004 51.7785 68.0083 51.8905 67.9759C52.0025 67.9434 52.1013 67.876 52.1724 67.7833C52.1967 67.7496 52.2169 67.7131 52.2326 67.6747C52.3402 67.4296 52.5338 67.2328 52.7766 67.1216C53.0194 67.0103 53.2946 66.9925 53.5496 67.0714H53.6699C53.7864 67.0772 53.9016 67.0455 53.9988 66.981C54.0961 66.9165 54.1703 66.8225 54.2105 66.7128C54.2508 66.603 54.2551 66.4832 54.2228 66.3709C54.1904 66.2585 54.1232 66.1594 54.0308 66.0881C53.9972 66.0638 53.9609 66.0435 53.9225 66.0278Z" fill="#4D8AF0"/>
<path opacity="0.5" d="M254.307 21.2713C254.062 21.1633 253.866 20.9691 253.755 20.7255C253.644 20.4819 253.626 20.206 253.705 19.9501C253.71 19.91 253.71 19.8695 253.705 19.8294C253.711 19.7126 253.679 19.597 253.615 19.4995C253.551 19.4019 253.457 19.3275 253.348 19.2872C253.238 19.2468 253.119 19.2425 253.007 19.2749C252.895 19.3073 252.796 19.3748 252.725 19.4675C252.701 19.5012 252.68 19.5376 252.665 19.5761C252.557 19.8211 252.364 20.018 252.121 20.1292C251.878 20.2404 251.603 20.2583 251.348 20.1793H251.227C251.111 20.1736 250.996 20.2052 250.898 20.2698C250.801 20.3343 250.727 20.4283 250.687 20.538C250.646 20.6478 250.642 20.7675 250.675 20.8799C250.707 20.9923 250.774 21.0913 250.867 21.1627C250.9 21.187 250.936 21.2072 250.975 21.223C251.219 21.3309 251.415 21.5251 251.526 21.7687C251.637 22.0123 251.655 22.2883 251.576 22.5441C251.572 22.5842 251.572 22.6247 251.576 22.6648C251.57 22.7816 251.602 22.8972 251.666 22.9948C251.731 23.0923 251.824 23.1667 251.934 23.2071C252.043 23.2475 252.163 23.2518 252.275 23.2193C252.387 23.1869 252.485 23.1194 252.556 23.0268C252.581 22.9931 252.601 22.9566 252.617 22.9182C252.724 22.6731 252.918 22.4763 253.161 22.365C253.404 22.2538 253.679 22.236 253.934 22.3149H254.054C254.17 22.3207 254.286 22.289 254.383 22.2245C254.48 22.16 254.554 22.066 254.595 21.9562C254.635 21.8465 254.639 21.7267 254.607 21.6143C254.574 21.502 254.507 21.4029 254.415 21.3316C254.381 21.3072 254.345 21.287 254.307 21.2713Z" fill="#4D8AF0"/>
<path opacity="0.5" d="M7.98073 180.54C7.73643 180.432 7.54018 180.238 7.4293 179.994C7.31841 179.751 7.30063 179.475 7.37932 179.219C7.38394 179.179 7.38394 179.138 7.37932 179.098C7.38507 178.982 7.3535 178.866 7.28918 178.768C7.22487 178.671 7.13117 178.596 7.02175 178.556C6.91234 178.516 6.79294 178.511 6.68093 178.544C6.56891 178.576 6.47015 178.644 6.39903 178.736C6.37477 178.77 6.35458 178.806 6.33889 178.845C6.23129 179.09 6.03767 179.287 5.79483 179.398C5.552 179.509 5.27689 179.527 5.0218 179.448H4.90151C4.78506 179.442 4.66982 179.474 4.57257 179.539C4.47533 179.603 4.40118 179.697 4.3609 179.807C4.32063 179.917 4.31634 180.036 4.34868 180.149C4.38102 180.261 4.44827 180.36 4.54066 180.432C4.57423 180.456 4.61059 180.476 4.64893 180.492C4.89323 180.6 5.08948 180.794 5.20036 181.038C5.31124 181.281 5.32903 181.557 5.25034 181.813C5.24571 181.853 5.24571 181.894 5.25034 181.934C5.24458 182.05 5.27615 182.166 5.34047 182.264C5.40479 182.361 5.49849 182.436 5.6079 182.476C5.71731 182.516 5.83671 182.521 5.94873 182.488C6.06074 182.456 6.15951 182.388 6.23062 182.296C6.25488 182.262 6.27507 182.226 6.29077 182.187C6.39837 181.942 6.59199 181.745 6.83482 181.634C7.07765 181.523 7.35277 181.505 7.60786 181.584H7.72815C7.84459 181.59 7.95984 181.558 8.05708 181.493C8.15432 181.429 8.22848 181.335 8.26875 181.225C8.30903 181.115 8.31331 180.996 8.28098 180.883C8.24864 180.771 8.18139 180.672 8.089 180.6C8.05542 180.576 8.01907 180.556 7.98073 180.54Z" fill="#4D8AF0"/>
<path opacity="0.5" d="M15.9915 293.068C15.7472 292.96 15.5509 292.766 15.44 292.522C15.3292 292.278 15.3114 292.002 15.3901 291.747C15.3947 291.707 15.3947 291.666 15.3901 291.626C15.3958 291.509 15.3643 291.394 15.2999 291.296C15.2356 291.198 15.1419 291.124 15.0325 291.084C14.9231 291.043 14.8037 291.039 14.6917 291.071C14.5796 291.104 14.4809 291.171 14.4098 291.264C14.3855 291.298 14.3653 291.334 14.3496 291.373C14.242 291.618 14.0484 291.814 13.8056 291.926C13.5627 292.037 13.2876 292.055 13.0325 291.976H12.9123C12.7958 291.97 12.6806 292.002 12.5833 292.066C12.4861 292.131 12.4119 292.225 12.3716 292.335C12.3314 292.444 12.3271 292.564 12.3594 292.676C12.3918 292.789 12.459 292.888 12.5514 292.959C12.585 292.983 12.6213 293.004 12.6597 293.019C12.904 293.127 13.1002 293.322 13.2111 293.565C13.322 293.809 13.3398 294.085 13.2611 294.341C13.2564 294.381 13.2564 294.421 13.2611 294.461C13.2553 294.578 13.2869 294.694 13.3512 294.791C13.4155 294.889 13.5092 294.963 13.6186 295.004C13.728 295.044 13.8475 295.048 13.9595 295.016C14.0715 294.983 14.1703 294.916 14.2414 294.823C14.2656 294.79 14.2858 294.753 14.3015 294.715C14.4091 294.47 14.6027 294.273 14.8456 294.162C15.0884 294.05 15.3635 294.032 15.6186 294.111H15.7389C15.8553 294.117 15.9706 294.085 16.0678 294.021C16.1651 293.956 16.2392 293.862 16.2795 293.753C16.3198 293.643 16.3241 293.523 16.2917 293.411C16.2594 293.298 16.1921 293.199 16.0997 293.128C16.0662 293.104 16.0298 293.084 15.9915 293.068Z" fill="#4D8AF0"/>
<path opacity="0.5" d="M149.577 82.9072C150.56 82.9072 151.357 82.1077 151.357 81.1215C151.357 80.1353 150.56 79.3358 149.577 79.3358C148.594 79.3358 147.797 80.1353 147.797 81.1215C147.797 82.1077 148.594 82.9072 149.577 82.9072Z" fill="#F55F44"/>
<path opacity="0.5" d="M197.654 316.004C198.637 316.004 199.434 315.205 199.434 314.218C199.434 313.232 198.637 312.433 197.654 312.433C196.671 312.433 195.874 313.232 195.874 314.218C195.874 315.205 196.671 316.004 197.654 316.004Z" fill="#4D8AF0"/>
<path opacity="0.5" d="M307.165 131.132C308.148 131.132 308.945 130.333 308.945 129.347C308.945 128.361 308.148 127.561 307.165 127.561C306.181 127.561 305.384 128.361 305.384 129.347C305.384 130.333 306.181 131.132 307.165 131.132Z" fill="#4D8AF0"/>
<path opacity="0.5" d="M339.22 211.512C340.203 211.512 341 210.712 341 209.726C341 208.74 340.203 207.941 339.22 207.941C338.237 207.941 337.44 208.74 337.44 209.726C337.44 210.712 338.237 211.512 339.22 211.512Z" fill="#47E6B1"/>
<path opacity="0.5" d="M219.912 8.78363C220.895 8.78363 221.692 7.98416 221.692 6.99795C221.692 6.01175 220.895 5.21228 219.912 5.21228C218.929 5.21228 218.132 6.01175 218.132 6.99795C218.132 7.98416 218.929 8.78363 219.912 8.78363Z" fill="#F55F44"/>
<defs>
<linearGradient id="paint0_linear" x1="37.3958" y1="272.611" x2="229.709" y2="272.611" gradientUnits="userSpaceOnUse">
<stop stop-color="#808080" stop-opacity="0.25"/>
<stop offset="0.54" stop-color="#808080" stop-opacity="0.12"/>
<stop offset="1" stop-color="#808080" stop-opacity="0.1"/>
</linearGradient>
</defs>
</svg>
